<svg width="40" height="39" viewBox="0 0 40 39" fill="none" xmlns="http://www.w3.org/2000/svg">
<rect width="40" height="39" rx="19.5" fill="white"/>
<path d="M35.9189 18.9271C35.7453 18.7419 35.5716 18.6493 35.398 18.6493C35.2707 18.6493 35.1433 18.6956 35.0392 18.7998C34.854 18.985 34.6803 19.2512 34.4951 19.5059C34.3446 19.7374 34.1826 19.9804 34.0321 20.1194C33.7196 20.4203 33.3607 20.6634 33.0482 20.7791C32.6315 20.9296 32.1338 20.9875 31.6129 21.0338C31.0109 21.0917 30.3859 21.1611 29.7492 21.3926C28.8348 21.7052 27.9435 22.2724 27.11 23.0826C26.9943 23.1984 26.8438 23.372 26.6933 23.5457C26.8322 23.0711 27.0869 22.446 27.5731 21.9714C27.6194 21.9251 27.7583 21.8325 27.8972 21.7283C28.0592 21.6126 28.2097 21.5084 28.2676 21.4505C28.5222 21.1843 28.3602 20.9644 28.3023 20.9065C28.1981 20.8023 28.0361 20.7444 27.8161 20.7444C27.5962 20.7444 26.8438 20.8023 26.0104 21.6126C25.9062 21.7167 25.8136 21.9135 25.6284 22.2839C25.5242 22.5039 25.3506 22.8627 25.2811 22.9322C25.2117 23.0016 25.1654 23.0248 25.1307 23.0248C24.795 22.6775 25.7094 20.9412 26.3345 20.3277C26.867 19.8184 27.7698 19.2049 28.2676 19.1239C28.5222 19.1239 28.8695 19.2975 29.2515 19.4827C29.6335 19.6679 30.027 19.8647 30.4322 19.9457C30.5595 19.9689 30.6984 19.9804 30.8257 19.9804C31.6129 19.9804 32.3305 19.5522 32.7472 19.1586C33.7311 18.1978 33.6038 16.5889 32.8283 15.7902C32.6083 15.5702 31.8096 14.8294 30.7216 14.8294C30.0965 14.8294 29.5293 15.0725 29.0316 15.5587C28.8927 15.686 28.6843 16.0448 28.3602 16.6004C28.1287 17.0056 27.8046 17.5496 27.6772 17.677C27.4573 17.8853 27.0985 18.0937 26.7396 18.302C26.4271 18.4757 26.1146 18.6609 25.8715 18.8576C25.6284 19.0544 25.3506 19.2975 25.0844 19.5522C24.7603 19.8763 24.4593 20.2235 24.2741 20.5361C24.2162 20.6518 24.1236 20.9528 24.0194 21.2885C23.9384 21.5663 23.7995 22.0061 23.7185 22.2724C23.5564 21.7399 23.2902 20.6865 23.0703 19.8647C22.8156 18.8692 22.5725 17.9316 22.4452 17.5496C21.3918 14.1465 21.195 13.533 23.5101 11.2989C23.95 10.8706 24.4709 10.6507 24.9918 10.6507C25.6053 10.6507 26.2419 10.9517 26.7744 11.5073C27.6309 12.387 27.4689 13.695 26.7744 14.3548C26.5313 14.5863 26.2419 14.7252 25.9757 14.7252C25.7789 14.7252 25.5937 14.6442 25.4432 14.4937L25.2348 14.6905L25.4548 14.378C25.5358 14.3085 25.6747 14.2275 25.8136 14.1465C25.9525 14.0654 26.0798 13.996 26.1724 13.915C26.6586 13.4404 26.6933 12.8616 26.265 12.4217C25.9988 12.1439 25.5821 11.9935 25.0844 11.9935C24.5519 11.9935 24.031 12.1787 23.73 12.468C23.3944 12.7922 23.186 13.2436 23.186 13.7182C23.186 14.297 23.4407 14.8757 23.9731 15.4313C24.4593 15.9407 25.0381 16.1953 25.6631 16.1953C26.7628 16.1953 27.7235 15.3966 28.0824 15.0493C29.182 13.996 28.9737 11.7851 27.6541 10.4192C26.8901 9.63208 25.9757 9.2038 25.0149 9.2038C24.112 9.2038 23.1744 9.58578 22.5031 10.234C21.6233 11.079 20.8246 12.4102 20.3848 13.3478C20.3616 12.4796 20.5005 10.8243 21.0561 10.2803C21.1372 10.1993 21.3918 10.0025 21.6581 9.78256C21.959 9.53948 22.26 9.2964 22.3757 9.19222C23.3133 8.28934 23.6953 7.68742 23.6953 7.10866C23.6953 6.72667 23.5333 6.35626 23.1976 5.99742C23.0471 5.84695 22.8735 5.76592 22.6767 5.76592C22.4452 5.76592 22.2021 5.88167 21.9706 6.1016C21.797 6.26366 21.5423 6.70352 21.1256 7.39804C20.8594 7.84948 20.5352 8.4051 20.3616 8.61345C20.3269 8.17359 20.3616 7.15496 21.1372 5.24503C21.3108 4.79359 21.2529 4.09907 20.7552 3.57818C20.5468 3.36982 20.2111 3.24249 19.8639 3.24249C19.5166 3.24249 19.2041 3.35824 18.9957 3.5666C18.5096 4.02961 18.4285 4.90934 18.6832 5.31448C19.424 6.69195 19.4472 8.17359 19.4124 8.64818C19.343 8.57873 19.2504 8.48612 19.1578 8.39352C19.0652 8.30092 18.8105 7.91893 18.6022 7.61798C18.2665 7.12024 18.0581 6.81927 17.9308 6.68037C17.6414 6.37941 17.1437 6.06688 16.6922 6.06688C16.4607 6.06688 16.2524 6.1479 16.1019 6.29838C15.6852 6.70352 15.3726 7.36332 16.2292 8.25462C16.4839 8.52085 17.5141 9.23852 18.4517 9.90989C18.66 10.0604 18.8221 10.1646 18.8337 10.1761C19.1115 10.5234 19.2388 12.9542 18.9726 13.232C18.7989 13.0468 18.6022 12.7922 18.4054 12.5375C18.197 12.2597 17.9887 11.9935 17.815 11.8198C17.3057 11.2874 15.9283 9.86359 14.2035 9.86359C13.3007 9.86359 12.4441 10.2456 11.6454 11.0096C10.974 11.6462 10.6036 12.4333 10.592 13.2899C10.5689 14.3317 11.055 15.2114 11.4717 15.6628C11.9232 16.1374 12.9765 16.6352 14.0299 16.6352C14.7013 16.6352 15.28 16.4268 15.6852 16.0333C17.0974 14.6789 16.2061 13.533 15.9051 13.2089C15.5231 12.8153 15.0485 12.5954 14.5624 12.5954C14.1688 12.5954 13.7868 12.7459 13.5206 13.0005C13.1965 13.3015 13.1154 13.9728 13.2428 14.4011C13.2775 14.5516 13.347 14.6905 13.4164 14.8063C13.4511 14.8757 13.4974 14.9683 13.5206 14.9683C13.4511 15.0378 13.347 15.0725 13.2196 15.0725C12.9765 15.0725 12.6872 14.9452 12.502 14.7484C11.7727 13.9844 11.7843 12.9774 12.5483 12.2481C13.0576 11.7619 13.7174 11.4957 14.4235 11.4957C15.1874 11.4957 15.9398 11.8198 16.4839 12.3754C17.5488 13.4751 17.6761 14.6442 16.9469 16.4152C16.6459 17.1561 16.2292 18.5798 16.0209 19.5406L15.9167 20.2351C15.8241 20.837 15.6504 21.983 15.5231 22.747C15.3263 21.8209 14.7823 20.8833 13.891 19.9573C13.7405 19.7952 13.3007 19.4711 12.8029 19.0891C12.363 18.7535 11.8653 18.3715 11.7264 18.2326C11.6454 18.1515 11.5875 18.0589 11.518 17.9432C11.4833 17.8969 11.4486 17.7001 11.4254 17.5612C11.3791 17.2718 11.3097 16.9014 11.1476 16.612C11.0087 16.3574 10.8235 16.1259 10.5804 15.8712C9.97853 15.2577 9.34188 14.9336 8.67051 14.9336C8.04544 14.9336 7.4088 15.2114 6.86476 15.7323C6.39017 16.1953 5.73037 17.6422 6.92263 18.8692C7.17729 19.1354 8.09174 19.9804 9.2377 19.9804C9.33031 19.9804 9.43449 19.9804 9.58497 19.9573C10.1406 19.8763 10.5689 19.8184 10.9509 19.8184C11.6454 19.8184 12.1894 20.0036 13.127 20.9644C13.9604 21.8209 14.6202 22.9553 14.4813 23.5109C14.3077 23.0132 13.9373 22.4228 13.509 21.9714C13.4974 21.9598 12.0042 20.5013 11.3213 20.5013C11.1592 20.5013 11.0435 20.5708 10.9856 20.6287C10.9046 20.7097 10.8467 20.8139 10.8351 20.918C10.812 21.0454 10.8583 21.1727 10.9509 21.2769C10.9972 21.3232 11.1476 21.4621 11.3328 21.6473C11.6917 21.983 12.2126 22.4807 12.502 22.7817C12.8376 23.1405 13.2544 23.7656 13.3817 24.1013C13.2196 23.9624 12.965 23.6961 12.6409 23.3604C12.2357 22.9322 11.7959 22.5849 10.9046 22.1798C10.2563 21.8904 9.64284 21.7978 8.99462 21.6936C8.49688 21.6241 7.98757 21.5431 7.42037 21.3695C6.59852 21.138 6.01976 20.8254 5.62619 20.4319C5.51044 20.3161 5.45257 20.2467 5.37154 20.1078C5.33681 20.0499 5.26736 19.8184 5.22106 19.6679C5.07058 19.1933 4.98955 18.9618 4.8738 18.8461C4.72332 18.6956 4.57284 18.6609 4.46866 18.6609C4.29503 18.6609 4.13298 18.7419 3.95934 18.9039C3.57736 19.2744 3.45003 19.9457 3.42688 20.3856C3.39215 22.145 4.19085 22.9669 4.61914 23.4067C5.23263 24.0434 5.69565 24.3675 6.29757 24.6916C7.86024 25.5019 10.2216 26.7289 11.2865 27.8285C12.745 29.3449 13.8331 30.9886 15.0485 33.5236C15.1064 33.6394 15.3148 34.0676 15.5231 34.4959C15.8549 35.175 16.0363 35.53 16.0672 35.5609C16.1945 35.6882 16.345 35.7576 16.5302 35.7576C16.6112 35.7576 16.6922 35.7461 16.808 35.7113C18.116 35.2368 18.9841 34.9242 19.7597 34.9242C20.4311 34.9242 21.0793 35.1557 21.9706 35.7345C22.0748 35.8039 22.2252 35.885 22.3873 35.885C22.5262 35.885 22.642 35.8271 22.7461 35.7345C22.8387 35.6419 22.9661 35.4104 23.4638 34.4265C23.6374 34.0908 23.7879 33.7783 23.869 33.6394C24.6445 32.2272 27.8856 28.3378 28.8579 27.4118C29.9692 26.3353 31.1383 25.745 32.1569 25.3051C32.2842 25.2472 32.4116 25.2009 32.5505 25.1431C33.2913 24.8421 34.1247 24.5064 35.2591 23.4067C35.8031 22.8859 36.2199 22.0293 36.3703 21.1148C36.5324 20.1888 36.3819 19.3785 35.9883 18.9734M30.2701 16.1606C30.7679 15.7439 31.5087 15.8943 31.9948 16.3921C32.5505 16.9709 32.562 17.9895 32.0875 18.4525C31.8328 18.7072 31.2772 18.985 30.6174 18.302C30.0155 17.677 29.7377 16.612 30.2817 16.1722M8.9599 18.1863C8.52003 18.6146 7.95284 18.6261 7.53613 18.1978C7.08469 17.7348 7.14257 17.0056 7.75606 16.4152C8.21907 15.9638 8.82099 15.8133 9.284 16.2185C10.0364 16.8898 9.20298 17.9432 8.9599 18.1747M14.7476 30.0857C14.6781 30.0163 14.0762 28.662 13.9604 28.3841C13.8678 28.2568 13.8794 28.0716 14.0068 27.9443C14.0646 27.898 17.6067 25.5019 18.2549 26.1733C18.5096 26.4279 19.2388 28.3726 19.0999 28.4999C19.0652 28.5346 18.3128 28.8703 18.2086 28.7546C18.1854 28.743 17.7919 27.4002 17.6183 27.215C17.3868 26.972 15.7199 27.8401 15.6273 27.9211C15.4189 28.1179 16.1598 29.5185 15.9746 29.6922C15.9051 29.7616 14.8981 30.2362 14.7476 30.0857ZM15.2453 31.4979C15.0717 31.3127 15.0485 31.1159 15.2453 30.9307C15.8357 30.3635 18.5674 29.0787 19.1694 29.7037C19.2967 29.8311 19.2851 30.0163 19.2388 30.1089C19.0536 30.3635 17.5372 30.5024 17.2826 30.6066C16.9585 30.7108 15.4189 31.6715 15.2453 31.4979ZM19.4703 33.2111C19.4703 33.2111 17.2015 34.7159 16.8311 34.3339C16.727 34.2181 15.8472 32.8985 16.2871 32.4702C16.4376 32.3313 17.1089 32.1346 17.5257 32.6323C17.6183 32.7596 17.6877 32.8638 17.7919 32.9796C17.9192 33.1069 18.2549 33.4657 18.6948 33.0374C18.88 32.8638 18.8452 32.7481 18.5559 31.8915C18.4864 31.7063 18.5211 31.5674 18.6137 31.4748C18.6832 31.4053 19.262 31.1738 19.4472 31.3822C19.6439 31.5789 19.6902 33.0027 19.4703 33.2226M22.6188 33.894C22.2716 34.2297 21.195 34.3455 20.6047 33.732C19.9912 33.1069 20.0491 32.042 20.1996 31.9031C20.3037 31.7989 20.9983 31.8452 21.0561 31.9031C21.114 31.9609 21.1487 32.0767 21.1372 32.1809C21.114 32.2735 21.0677 33.2458 21.1719 33.3615C21.3339 33.5236 21.8085 33.4657 21.9127 33.3615C22.04 33.2342 22.0863 32.3661 22.2021 32.2503C22.6304 31.8336 23.0818 31.8683 23.2439 32.0304C23.4985 32.2966 23.1629 33.3615 22.6072 33.894M24.4361 31.3474C24.2857 31.4863 20.6626 30.6298 20.5121 30.4561C20.3153 30.2594 20.3732 30.0163 20.4426 29.9468C20.4889 29.8889 20.6047 29.8542 20.7205 29.8542C23.105 29.8774 24.5056 30.8497 24.5172 30.8613C24.6676 31.0349 24.494 31.278 24.4361 31.3359M25.3969 29.7385C25.3969 29.7385 25.2927 29.7385 24.6329 29.5417C24.3783 29.4607 23.9616 29.3333 23.8921 29.2523C23.8458 29.1944 24.031 28.662 24.0657 28.5462C24.2394 28.06 24.2625 27.9674 24.0657 27.7591C23.8689 27.5623 22.4799 27.1109 22.1442 27.435C22.0285 27.5391 21.959 27.6086 21.8664 27.9211C21.8085 28.0485 21.7391 28.6851 21.7275 28.6967C21.6696 28.7546 21.1256 28.6967 21.0561 28.6272C20.9867 28.5578 20.7436 26.7868 21.1256 26.4048C21.8664 25.6871 25.9409 27.435 26.0683 27.5623C26.6702 28.1874 25.8715 29.2523 25.3969 29.7153M34.0437 22.7933C33.8701 22.9553 33.6964 23.0942 33.5112 23.1984C32.2727 23.9276 31.2077 23.8119 30.4901 24.1476C30.1544 24.2865 29.2631 24.7611 28.557 25.444C28.256 25.7334 27.9088 26.1038 27.6541 26.3469C27.4342 26.5668 27.0985 26.671 26.8322 26.5668C25.8946 26.2543 22.9429 25.3514 22.3063 25.2472C22.1789 25.2241 22.04 25.1546 21.9243 25.0389C21.7854 24.8884 21.6581 24.6916 21.6233 24.4022C21.1372 21.4852 20.0144 18.8461 19.7481 18.5683C19.6092 18.4178 19.4472 18.3599 19.2967 18.5104C18.7411 19.0428 17.8961 24.7958 17.6761 25.0041C17.4215 25.2472 14.4003 26.671 13.8215 27.0414C13.3817 27.3308 13.2891 27.2382 12.4325 26.3469C11.4139 25.2935 10.8467 24.7032 9.57339 24.2402C8.77469 23.9624 8.33483 24.1128 7.17729 23.835C7.11941 23.8119 6.14708 23.5457 5.12845 22.4923C4.73489 22.0872 4.08667 20.7444 4.42236 20.4203C4.48023 20.3624 4.57284 20.3509 4.65386 20.4435C4.65386 20.4435 5.34839 21.4621 5.51044 21.6241C6.07763 22.2145 6.94579 22.5965 8.1612 22.7122C9.46921 22.8396 10.9046 23.1405 12.4209 24.7148C12.5598 24.8652 13.0113 25.5829 13.1154 25.6871C13.2891 25.8723 13.4974 25.8954 13.8215 25.7218C14.2383 25.4556 16.5765 24.3212 16.5881 24.2981C16.7733 24.1244 16.8774 21.52 16.9353 20.9991C17.3405 17.4917 18.7063 15.1767 19.2041 14.6905C19.4124 14.4937 19.6208 14.5285 19.8755 14.7947C20.4426 15.385 21.9011 19.3438 22.3989 21.3348C22.5031 21.7746 22.9313 23.9971 23.0471 24.1128C23.0818 24.1476 25.8831 25.0157 26.3924 25.2704C26.6355 25.4093 26.7512 25.4209 26.9711 25.2125C28.1518 24.0665 29.3557 22.9437 30.8489 22.608C31.9948 22.3534 32.6199 22.3997 33.4302 22.0177C33.8701 21.8094 34.2405 21.52 34.5183 21.2537C34.8887 20.8949 35.0623 20.7328 35.1433 20.8254C35.4443 21.138 34.4604 22.3765 34.0437 22.7933Z" fill="#5B3928"/>
</svg>
